<svg width="139" height="16" viewBox="0 0 139 16" fill="none" xmlns="http://www.w3.org/2000/svg">
<path d="M11.002 2.01276C13.952 2.01276 15.9743 3.88664 15.9743 6.78094C15.9743 9.67523 13.952 11.5306 11.002 11.5306H4.13736V15H0.797787V2.01276H11.002ZM10.0744 8.72902C11.0763 8.72902 12.6347 8.72902 12.6347 6.78094C12.6347 4.8143 11.0763 4.8143 10.0744 4.8143H4.13736V8.72902H10.0744ZM24.0451 3.88664C28.6092 3.88664 31.2066 5.35234 31.2437 9.4897V15H28.0526V13.6456C26.123 14.5918 23.9894 15.1855 21.4105 15.1855C18.3493 15.1855 16.4383 14.2022 16.4383 11.7346C16.4383 8.896 19.5552 8.00545 23.0247 8.00545C24.8985 8.00545 26.624 8.3023 28.0526 8.78468C28.0526 6.70672 25.3809 6.53974 23.8967 6.53974C22.4681 6.53974 20.7241 6.66962 18.4791 7.33753L17.3474 5.01838C19.5738 4.29481 21.763 3.88664 24.0451 3.88664ZM28.0526 11.6048V10.7513C26.9394 10.3988 25.4366 10.0834 23.4143 10.0834C21.0395 10.0834 19.6109 10.4916 19.6109 11.6048C19.6109 12.7551 20.6684 12.8478 22.3196 12.8478C24.0451 12.8478 26.4199 12.3098 28.0526 11.6048ZM40.3422 3.88664C44.9063 3.88664 47.5037 5.35234 47.5408 9.4897V15H44.3497V13.6456C42.4201 14.5918 40.2865 15.1855 37.7076 15.1855C34.6463 15.1855 32.7354 14.2022 32.7354 11.7346C32.7354 8.896 35.8523 8.00545 39.3218 8.00545C41.1956 8.00545 42.9211 8.3023 44.3497 8.78468C44.3497 6.70672 41.678 6.53974 40.1938 6.53974C38.7652 6.53974 37.0212 6.66962 34.7762 7.33753L33.6445 5.01838C35.8709 4.29481 38.0601 3.88664 40.3422 3.88664ZM44.3497 11.6048V10.7513C43.2365 10.3988 41.7337 10.0834 39.7114 10.0834C37.3366 10.0834 35.908 10.4916 35.908 11.6048C35.908 12.7551 36.9655 12.8478 38.6167 12.8478C40.3422 12.8478 42.717 12.3098 44.3497 11.6048ZM49.3992 0.157446H52.5718V15H49.3992V0.157446Z" fill="#F4F3FC"/>
<path d="M53.9231 8.48783C53.9231 3.9794 56.3721 1.82723 62.0865 1.82723C67.2814 1.82723 69.9902 3.64545 70.1943 7.7457H65.2591C65.0736 6.52119 64.1274 5.90894 62.0865 5.90894C59.2293 5.90894 58.7469 7.11489 58.7469 8.48783C58.7469 9.87932 59.2479 11.1038 62.0865 11.1038C64.1274 11.1038 65.0736 10.473 65.2591 9.22996H70.1943C69.9902 13.3488 67.3 15.1855 62.0865 15.1855C56.3721 15.1855 53.9231 13.0148 53.9231 8.48783ZM78.1894 3.68255C82.7535 3.68255 85.3509 5.24102 85.388 9.4897V15H80.9353V13.6456C79.2098 14.9072 77.2803 15.1855 75.3507 15.1855C72.809 15.1855 70.5826 14.2764 70.5826 11.8645C70.5826 8.97021 73.9221 8.20953 77.169 8.20953C78.7274 8.20953 79.9148 8.41362 80.9353 8.78468C80.9353 7.44885 79.5252 7.39319 78.041 7.39319C76.6124 7.39319 74.9797 7.52306 72.9388 7.96834L71.4917 4.8143C73.7181 4.09072 76.13 3.68255 78.1894 3.68255ZM80.9353 11.3636V10.8997C80.2302 10.7142 79.2655 10.6214 77.9853 10.6214C75.9259 10.6214 75.0353 10.807 75.0353 11.512C75.0353 12.1243 75.5548 12.217 76.6866 12.217C78.1894 12.217 79.8221 11.846 80.9353 11.3636ZM86.1368 11.1595H90.5896C90.5896 11.7903 91.1833 12.0315 93.8735 12.0315C96.3596 12.0315 96.7864 11.9202 96.7864 11.4378C96.7864 10.8812 96.3596 10.9369 93.688 10.8255C88.5673 10.6214 86.3224 10.2318 86.3224 7.39319C86.3224 4.22059 89.7547 3.68255 93.8735 3.68255C97.9923 3.68255 100.868 4.22059 100.868 7.4303H96.4153C96.4153 6.83659 95.6732 6.83659 93.688 6.83659C91.4245 6.83659 90.7751 6.83659 90.7751 7.26332C90.7751 7.72715 91.2389 7.7086 94.059 7.85702C98.4376 8.07966 101.239 8.3394 101.239 11.2523C101.239 14.6475 98.2706 15.1855 94.059 15.1855C89.8475 15.1855 86.1368 14.6475 86.1368 11.1595ZM102.166 0.157446H106.619V3.12596H102.166V0.157446ZM102.166 3.86808H106.619V15H102.166V3.86808ZM117.571 3.68255C120.075 3.68255 122.914 4.46179 122.914 8.48783V15H118.461V10.306C118.461 8.39506 117.775 7.57872 115.771 7.57872C114.454 7.57872 113.062 8.15387 112.19 8.98877V15H107.738V3.86808H112.19V5.35234C113.526 4.42468 115.233 3.68255 117.571 3.68255ZM131.238 15.1855C126.507 15.1855 123.668 13.5529 123.668 9.43404C123.668 5.31523 126.507 3.68255 131.238 3.68255C135.969 3.68255 138.807 5.31523 138.807 9.43404C138.807 13.5529 135.969 15.1855 131.238 15.1855ZM131.238 11.4749C133.223 11.4749 134.355 11.0667 134.355 9.43404C134.355 7.80136 133.223 7.39319 131.238 7.39319C129.252 7.39319 128.121 7.80136 128.121 9.43404C128.121 11.0667 129.252 11.4749 131.238 11.4749Z" fill="#C31B1B"/>
</svg>
