<svg width="6" height="8" viewBox="0 0 6 8" fill="none" xmlns="http://www.w3.org/2000/svg">
<path fill-rule="evenodd" clip-rule="evenodd" d="M3.64155 0.820968C-0.859682 0.595906 3.89013 1.71114 3.89013 2.43335C3.89013 3.12533 3.43665 3.68631 2.74466 3.68631C2.04932 3.68631 1.5253 3.12533 1.5253 2.43335L1.53538 2.31242C0.856833 3.11861 0.450378 4.1633 0.450378 5.29869C0.450378 6.78342 1.65295 7.98599 3.13768 7.98599C4.62242 7.98599 5.82499 6.78342 5.82499 5.29869C5.82499 3.48812 4.95497 1.87238 3.64155 0.820968ZM3.04027 6.97825C2.44234 6.97825 1.95863 6.50797 1.95863 5.92349C1.95863 5.37931 2.31134 4.99637 2.90254 4.87544C3.49711 4.75451 4.11183 4.46898 4.45446 4.00878C4.58547 4.44211 4.65265 4.89895 4.65265 5.36587C4.65265 6.25604 3.93044 6.97825 3.04027 6.97825Z" fill="#FFAB2A"/>
</svg>
