<svg width="28" height="27" viewBox="0 0 28 27" fill="none" xmlns="http://www.w3.org/2000/svg">
<path d="M14.1764 12.5263C14.0661 12.5153 13.9338 12.5153 13.8126 12.5263C11.189 12.4381 9.10559 10.2885 9.10559 7.64292C9.10559 4.94219 11.2882 2.74854 14 2.74854C16.7007 2.74854 18.8944 4.94219 18.8944 7.64292C18.8833 10.2885 16.7999 12.4381 14.1764 12.5263Z" stroke="#3F3F3F" stroke-width="1.5" stroke-linecap="round" stroke-linejoin="round"/>
<path d="M8.66469 16.5939C5.99703 18.3797 5.99703 21.2899 8.66469 23.0646C11.6961 25.0929 16.6677 25.0929 19.6991 23.0646C22.3668 21.2788 22.3668 18.3687 19.6991 16.5939C16.6787 14.5766 11.7071 14.5766 8.66469 16.5939Z" stroke="#3F3F3F" stroke-width="1.5" stroke-linecap="round" stroke-linejoin="round"/>
</svg>
